<?xml version="1.0" encoding="utf-8"?>
<!-- Generator: Adobe Illustrator 21.0.2, SVG Export Plug-In . SVG Version: 6.00 Build 0)  -->
<svg version="1.1" id="Layer_1" xmlns="http://www.w3.org/2000/svg" xmlns:xlink="http://www.w3.org/1999/xlink" x="0px" y="0px"
	 viewBox="0 0 415 110.7" style="enable-background:new 0 0 415 110.7;" xml:space="preserve">
<style type="text/css">
	.st0{fill:#414042;}
	.st1{fill:#E56969;}
</style>
<g>
	<g>
		<path class="st0" d="M146.1,67.7V40.8h6.1v26.9H146.1z"/>
		<path class="st0" d="M158.1,67.7V47.3h4.9l0.4,2.6h0.2c0.9-0.8,1.8-1.5,2.9-2.2c1-0.6,2.3-0.9,3.7-0.9c2.2,0,3.8,0.7,4.8,2.2
			c1,1.5,1.5,3.5,1.5,6.1v12.7h-6.1V55.8c0-1.5-0.2-2.5-0.6-3c-0.4-0.5-1-0.8-1.9-0.8c-0.8,0-1.4,0.2-2,0.5
			c-0.6,0.3-1.2,0.8-1.8,1.5v13.8H158.1z"/>
		<path class="st0" d="M187.7,68.2c-1.3,0-2.7-0.3-4.1-0.8c-1.4-0.5-2.6-1.2-3.7-2.1l2.7-3.8c0.9,0.7,1.8,1.3,2.7,1.6
			s1.7,0.5,2.6,0.5c0.9,0,1.6-0.2,2-0.5c0.4-0.3,0.6-0.7,0.6-1.3c0-0.3-0.1-0.6-0.3-0.9c-0.2-0.3-0.6-0.5-0.9-0.7
			c-0.4-0.2-0.8-0.4-1.3-0.6c-0.5-0.2-1-0.4-1.5-0.6c-0.6-0.2-1.3-0.5-1.9-0.9c-0.6-0.3-1.2-0.7-1.7-1.2c-0.5-0.5-0.9-1-1.3-1.7
			c-0.3-0.6-0.5-1.4-0.5-2.2c0-0.9,0.2-1.8,0.6-2.6c0.4-0.8,0.9-1.5,1.6-2c0.7-0.5,1.5-1,2.5-1.3c1-0.3,2-0.5,3.2-0.5
			c1.6,0,2.9,0.3,4.1,0.8c1.2,0.5,2.2,1.1,3.1,1.8l-2.7,3.6c-0.7-0.5-1.5-1-2.2-1.3c-0.7-0.3-1.4-0.5-2.1-0.5
			c-1.5,0-2.3,0.5-2.3,1.6c0,0.3,0.1,0.6,0.3,0.8c0.2,0.2,0.5,0.4,0.9,0.6c0.4,0.2,0.8,0.4,1.3,0.6c0.5,0.2,1,0.4,1.5,0.6
			c0.7,0.2,1.3,0.5,2,0.8c0.6,0.3,1.2,0.7,1.8,1.2c0.5,0.5,1,1,1.3,1.7c0.3,0.7,0.5,1.5,0.5,2.4c0,0.9-0.2,1.8-0.5,2.6
			c-0.4,0.8-0.9,1.5-1.6,2.1s-1.6,1.1-2.6,1.4C190.2,68,189,68.2,187.7,68.2z"/>
		<path class="st0" d="M206.9,68.2c-1.3,0-2.3-0.2-3.2-0.6c-0.9-0.4-1.6-0.9-2.2-1.6c-0.6-0.7-1-1.5-1.2-2.5c-0.3-1-0.4-2.1-0.4-3.2
			V52h-2.8v-4.5l3.1-0.2l0.7-5.4h5v5.4h4.9V52H206v8.2c0,1.2,0.2,2,0.7,2.5c0.5,0.5,1.1,0.8,1.9,0.8c0.3,0,0.7,0,1-0.1
			c0.3-0.1,0.7-0.2,0.9-0.3l0.9,4.4c-0.5,0.2-1.2,0.3-1.9,0.5S207.9,68.2,206.9,68.2z"/>
		<path class="st0" d="M219.2,68.2c-0.9,0-1.8-0.2-2.5-0.5s-1.4-0.8-1.9-1.3c-0.5-0.6-0.9-1.2-1.2-2c-0.3-0.7-0.4-1.6-0.4-2.4
			c0-2.1,0.9-3.8,2.7-5c1.8-1.2,4.7-2,8.8-2.4c-0.1-0.9-0.3-1.6-0.8-2.2c-0.5-0.5-1.3-0.8-2.4-0.8c-0.9,0-1.8,0.2-2.6,0.5
			c-0.9,0.3-1.8,0.8-2.8,1.4l-2.2-4c1.3-0.8,2.7-1.4,4.1-1.9c1.4-0.5,3-0.7,4.6-0.7c2.6,0,4.7,0.7,6,2.2c1.4,1.5,2.1,3.8,2.1,7v11.7
			h-4.9l-0.4-2.1h-0.2c-0.9,0.8-1.8,1.4-2.8,1.9S220.3,68.2,219.2,68.2z M221.3,63.5c0.7,0,1.3-0.2,1.8-0.5c0.5-0.3,1-0.7,1.6-1.3
			v-3.6c-2.1,0.3-3.6,0.7-4.5,1.3c-0.8,0.6-1.2,1.3-1.2,2.1c0,0.7,0.2,1.1,0.6,1.5C220,63.3,220.5,63.5,221.3,63.5z"/>
		<path class="st0" d="M236.3,67.7V40.8h16.9v5.1h-10.9v6.2h9.3v5.1h-9.3v10.4H236.3z"/>
		<path class="st0" d="M265.4,68.2c-1.3,0-2.5-0.2-3.8-0.7c-1.2-0.5-2.3-1.2-3.2-2.1s-1.7-2-2.2-3.4s-0.8-2.9-0.8-4.6
			s0.3-3.2,0.8-4.6c0.5-1.3,1.3-2.5,2.2-3.4s2-1.6,3.2-2.1c1.2-0.5,2.5-0.7,3.8-0.7s2.5,0.2,3.7,0.7c1.2,0.5,2.3,1.2,3.2,2.1
			s1.7,2,2.2,3.4c0.5,1.3,0.8,2.9,0.8,4.6s-0.3,3.2-0.8,4.6c-0.6,1.3-1.3,2.5-2.2,3.4s-2,1.6-3.2,2.1
			C267.9,68,266.7,68.2,265.4,68.2z M265.4,63.3c1.2,0,2.2-0.5,2.8-1.6c0.6-1,0.9-2.5,0.9-4.2c0-1.8-0.3-3.2-0.9-4.2
			c-0.6-1-1.6-1.6-2.8-1.6c-1.3,0-2.2,0.5-2.8,1.6c-0.6,1-0.9,2.5-0.9,4.2c0,1.8,0.3,3.2,0.9,4.2C263.2,62.8,264.1,63.3,265.4,63.3z
			"/>
		<path class="st0" d="M285.1,68.2c-1,0-1.9-0.2-2.6-0.5c-0.7-0.3-1.3-0.8-1.7-1.4c-0.4-0.6-0.7-1.3-0.9-2.1
			c-0.2-0.8-0.3-1.8-0.3-2.8V38.8h6.1v22.8c0,0.6,0.1,1.1,0.4,1.3c0.2,0.2,0.5,0.4,0.7,0.4c0.1,0,0.3,0,0.4,0c0.1,0,0.2,0,0.4-0.1
			l0.7,4.5c-0.3,0.1-0.7,0.3-1.3,0.4C286.4,68.1,285.8,68.2,285.1,68.2z"/>
		<path class="st0" d="M296.9,68.2c-1,0-1.9-0.2-2.6-0.5s-1.3-0.8-1.7-1.4s-0.7-1.3-0.9-2.1c-0.2-0.8-0.3-1.8-0.3-2.8V38.8h6.1v22.8
			c0,0.6,0.1,1.1,0.4,1.3c0.2,0.2,0.5,0.4,0.7,0.4c0.1,0,0.3,0,0.4,0c0.1,0,0.2,0,0.4-0.1l0.7,4.5c-0.3,0.1-0.7,0.3-1.3,0.4
			C298.1,68.1,297.5,68.2,296.9,68.2z"/>
		<path class="st0" d="M311.9,68.2c-1.3,0-2.5-0.2-3.8-0.7c-1.2-0.5-2.3-1.2-3.2-2.1s-1.7-2-2.2-3.4s-0.8-2.9-0.8-4.6
			s0.3-3.2,0.8-4.6c0.5-1.3,1.3-2.5,2.2-3.4s2-1.6,3.2-2.1c1.2-0.5,2.5-0.7,3.8-0.7s2.5,0.2,3.7,0.7c1.2,0.5,2.3,1.2,3.2,2.1
			s1.7,2,2.2,3.4c0.5,1.3,0.8,2.9,0.8,4.6s-0.3,3.2-0.8,4.6c-0.6,1.3-1.3,2.5-2.2,3.4s-2,1.6-3.2,2.1
			C314.4,68,313.2,68.2,311.9,68.2z M311.9,63.3c1.2,0,2.2-0.5,2.8-1.6c0.6-1,0.9-2.5,0.9-4.2c0-1.8-0.3-3.2-0.9-4.2
			c-0.6-1-1.6-1.6-2.8-1.6c-1.3,0-2.2,0.5-2.8,1.6c-0.6,1-0.9,2.5-0.9,4.2c0,1.8,0.3,3.2,0.9,4.2C309.7,62.8,310.6,63.3,311.9,63.3z
			"/>
		<path class="st0" d="M329.1,67.7l-5.1-20.4h6l2,9.5c0.2,1,0.3,2,0.5,3c0.1,1,0.3,2,0.5,3.1h0.2c0.2-1,0.4-2.1,0.6-3.1s0.4-2,0.6-3
			l2.3-9.5h5.2l2.3,9.5c0.2,1,0.5,2,0.7,3s0.4,2,0.6,3.1h0.2c0.2-1,0.3-2.1,0.5-3.1s0.3-2,0.5-3l1.9-9.5h5.6L349,67.7H342l-1.9-8.2
			c-0.2-1-0.4-1.9-0.6-2.9s-0.3-2-0.5-3.1h-0.2c-0.2,1.1-0.4,2.1-0.5,3.1c-0.2,1-0.3,1.9-0.5,2.9l-1.8,8.2H329.1z"/>
	</g>
	<path class="st1" d="M94.4,91c-1,0-1.8-0.5-2.3-1.4l-4.6-8.4H71.9c-6,0-10.9-4.9-10.9-10.9V42.6c0-6,4.9-10.9,10.9-10.9h43.7
		c6,0,10.9,4.9,10.9,10.9v27.7c0,6-4.9,10.9-10.9,10.9h-14.3l-4.6,8.4C96.3,90.5,95.4,91,94.4,91C94.4,91,94.4,91,94.4,91z
		 M71.9,33.7c-4.9,0-8.9,4-8.9,8.9v27.7c0,4.9,4,8.9,8.9,8.9h16.7l5.2,9.4c0.2,0.3,0.5,0.3,0.6,0.3s0.4,0,0.6-0.3l5.2-9.4h15.4
		c4.9,0,8.9-4,8.9-8.9V42.6c0-4.9-4-8.9-8.9-8.9H71.9z"/>
	<path class="st1" d="M109.3,45.7c-1.8-1.9-4.3-2.9-7-2.9c-3.8,0-6.3,2.1-7.6,3.9c-0.4,0.5-0.7,0.9-0.9,1.3
		c-0.3-0.4-0.6-0.9-0.9-1.3c-1.4-1.8-3.8-3.9-7.6-3.9c-2.7,0-5.2,1-7,2.9c-1.7,1.8-2.7,4.2-2.7,6.7c0,2.8,1.2,5.4,3.7,8.1
		c2.3,2.5,5.5,5,9.3,8c1.4,1.1,2.9,2.2,4.4,3.5l0,0c0.2,0.2,0.5,0.2,0.7,0.2c0.3,0,0.5-0.1,0.7-0.2l0,0c1.6-1.2,3-2.4,4.4-3.5
		c3.8-3,7-5.5,9.3-8c2.5-2.8,3.7-5.4,3.7-8.1C112,49.9,111.1,47.5,109.3,45.7z"/>
</g>
</svg>
